<mxfile host="app.diagrams.net" agent="Mozilla/5.0 (Windows NT 10.0; Win64; x64) AppleWebKit/537.36 (KHTML, like Gecko) Chrome/127.0.0.0 Safari/537.36" version="24.7.7">
  <diagram name="第 1 页" id="Sv8ttdxnPp5bUlKQN6N4">
    <mxGraphModel dx="1259" dy="686" grid="1" gridSize="10" guides="1" tooltips="1" connect="1" arrows="1" fold="1" page="1" pageScale="1" pageWidth="827" pageHeight="1169" math="0" shadow="0">
      <root>
        <mxCell id="0" />
        <mxCell id="1" parent="0" />
        <mxCell id="2JfQpS-_HPH5pTeUUdEe-5" style="rounded=1;orthogonalLoop=1;jettySize=auto;html=1;entryX=0.5;entryY=0;entryDx=0;entryDy=0;exitX=0.5;exitY=1;exitDx=0;exitDy=0;endArrow=open;endFill=0;" edge="1" parent="1" source="2JfQpS-_HPH5pTeUUdEe-1" target="2JfQpS-_HPH5pTeUUdEe-2">
          <mxGeometry relative="1" as="geometry" />
        </mxCell>
        <mxCell id="2JfQpS-_HPH5pTeUUdEe-6" value="a" style="edgeLabel;html=1;align=center;verticalAlign=middle;resizable=0;points=[];fontSize=18;" vertex="1" connectable="0" parent="2JfQpS-_HPH5pTeUUdEe-5">
          <mxGeometry x="-0.1479" y="-5" relative="1" as="geometry">
            <mxPoint as="offset" />
          </mxGeometry>
        </mxCell>
        <mxCell id="2JfQpS-_HPH5pTeUUdEe-13" style="shape=connector;rounded=1;orthogonalLoop=1;jettySize=auto;html=1;entryX=0.5;entryY=0;entryDx=0;entryDy=0;strokeColor=default;align=center;verticalAlign=middle;fontFamily=Helvetica;fontSize=11;fontColor=default;labelBackgroundColor=default;endArrow=open;endFill=0;" edge="1" parent="1" source="2JfQpS-_HPH5pTeUUdEe-1" target="2JfQpS-_HPH5pTeUUdEe-4">
          <mxGeometry relative="1" as="geometry" />
        </mxCell>
        <mxCell id="2JfQpS-_HPH5pTeUUdEe-18" value="b" style="edgeLabel;html=1;align=center;verticalAlign=middle;resizable=0;points=[];fontFamily=Helvetica;fontSize=18;fontColor=default;labelBackgroundColor=default;fillColor=none;gradientColor=none;" vertex="1" connectable="0" parent="2JfQpS-_HPH5pTeUUdEe-13">
          <mxGeometry x="0.0187" y="-1" relative="1" as="geometry">
            <mxPoint as="offset" />
          </mxGeometry>
        </mxCell>
        <mxCell id="2JfQpS-_HPH5pTeUUdEe-14" style="shape=connector;rounded=1;orthogonalLoop=1;jettySize=auto;html=1;strokeColor=default;align=center;verticalAlign=middle;fontFamily=Helvetica;fontSize=11;fontColor=default;labelBackgroundColor=default;endArrow=open;endFill=0;exitX=0.5;exitY=1;exitDx=0;exitDy=0;" edge="1" parent="1" source="2JfQpS-_HPH5pTeUUdEe-1" target="2JfQpS-_HPH5pTeUUdEe-8">
          <mxGeometry relative="1" as="geometry" />
        </mxCell>
        <mxCell id="2JfQpS-_HPH5pTeUUdEe-17" value="c" style="edgeLabel;html=1;align=center;verticalAlign=middle;resizable=0;points=[];fontFamily=Helvetica;fontSize=18;fontColor=default;labelBackgroundColor=default;fillColor=none;gradientColor=none;" vertex="1" connectable="0" parent="2JfQpS-_HPH5pTeUUdEe-14">
          <mxGeometry x="0.1241" y="1" relative="1" as="geometry">
            <mxPoint as="offset" />
          </mxGeometry>
        </mxCell>
        <mxCell id="2JfQpS-_HPH5pTeUUdEe-15" style="shape=connector;rounded=1;orthogonalLoop=1;jettySize=auto;html=1;entryX=0.5;entryY=0;entryDx=0;entryDy=0;strokeColor=default;align=center;verticalAlign=middle;fontFamily=Helvetica;fontSize=11;fontColor=default;labelBackgroundColor=default;endArrow=open;endFill=0;exitX=0.5;exitY=1;exitDx=0;exitDy=0;" edge="1" parent="1" source="2JfQpS-_HPH5pTeUUdEe-1" target="2JfQpS-_HPH5pTeUUdEe-11">
          <mxGeometry relative="1" as="geometry">
            <mxPoint x="295" y="100" as="sourcePoint" />
          </mxGeometry>
        </mxCell>
        <mxCell id="2JfQpS-_HPH5pTeUUdEe-19" value="d" style="edgeLabel;html=1;align=center;verticalAlign=middle;resizable=0;points=[];fontFamily=Helvetica;fontSize=18;fontColor=default;labelBackgroundColor=default;fillColor=none;gradientColor=none;" vertex="1" connectable="0" parent="2JfQpS-_HPH5pTeUUdEe-15">
          <mxGeometry x="0.0914" y="2" relative="1" as="geometry">
            <mxPoint as="offset" />
          </mxGeometry>
        </mxCell>
        <mxCell id="2JfQpS-_HPH5pTeUUdEe-1" value="" style="ellipse;whiteSpace=wrap;html=1;aspect=fixed;fillColor=#fff2cc;strokeColor=#d6b656;" vertex="1" parent="1">
          <mxGeometry x="280" y="50" width="50" height="50" as="geometry" />
        </mxCell>
        <mxCell id="2JfQpS-_HPH5pTeUUdEe-22" value="" style="edgeStyle=none;shape=connector;rounded=1;orthogonalLoop=1;jettySize=auto;html=1;strokeColor=default;align=center;verticalAlign=middle;fontFamily=Helvetica;fontSize=12;fontColor=default;labelBackgroundColor=default;resizable=0;endArrow=open;endFill=0;" edge="1" parent="1" source="2JfQpS-_HPH5pTeUUdEe-2" target="2JfQpS-_HPH5pTeUUdEe-21">
          <mxGeometry relative="1" as="geometry" />
        </mxCell>
        <mxCell id="2JfQpS-_HPH5pTeUUdEe-23" value="b" style="edgeLabel;html=1;align=center;verticalAlign=middle;resizable=0;points=[];strokeColor=#6c8ebf;fontFamily=Helvetica;fontSize=18;fontColor=default;fillColor=#dae8fc;" vertex="1" connectable="0" parent="2JfQpS-_HPH5pTeUUdEe-22">
          <mxGeometry x="-0.148" y="-1" relative="1" as="geometry">
            <mxPoint as="offset" />
          </mxGeometry>
        </mxCell>
        <mxCell id="2JfQpS-_HPH5pTeUUdEe-2" value="" style="ellipse;whiteSpace=wrap;html=1;aspect=fixed;fillColor=#dae8fc;strokeColor=#6c8ebf;" vertex="1" parent="1">
          <mxGeometry x="140" y="200" width="50" height="50" as="geometry" />
        </mxCell>
        <mxCell id="2JfQpS-_HPH5pTeUUdEe-3" value="&lt;h1 style=&quot;margin-top: 0px; font-size: 20px;&quot;&gt;敏感词：&lt;/h1&gt;&lt;p style=&quot;font-size: 20px;&quot;&gt;&lt;/p&gt;&lt;ul style=&quot;font-size: 20px;&quot;&gt;&lt;li style=&quot;font-size: 20px;&quot;&gt;abcde&lt;/li&gt;&lt;li style=&quot;font-size: 20px;&quot;&gt;bcde&lt;/li&gt;&lt;li style=&quot;font-size: 20px;&quot;&gt;cde&lt;/li&gt;&lt;li style=&quot;font-size: 20px;&quot;&gt;de&lt;/li&gt;&lt;/ul&gt;&lt;p style=&quot;font-size: 20px;&quot;&gt;&lt;/p&gt;" style="text;html=1;whiteSpace=wrap;overflow=hidden;rounded=0;fontSize=20;labelBackgroundColor=none;" vertex="1" parent="1">
          <mxGeometry x="530" y="10" width="210" height="150" as="geometry" />
        </mxCell>
        <mxCell id="2JfQpS-_HPH5pTeUUdEe-31" value="" style="edgeStyle=none;shape=connector;rounded=1;orthogonalLoop=1;jettySize=auto;html=1;strokeColor=default;align=center;verticalAlign=middle;fontFamily=Helvetica;fontSize=18;fontColor=default;labelBackgroundColor=default;resizable=0;endArrow=open;endFill=0;" edge="1" parent="1" source="2JfQpS-_HPH5pTeUUdEe-4" target="2JfQpS-_HPH5pTeUUdEe-30">
          <mxGeometry relative="1" as="geometry" />
        </mxCell>
        <mxCell id="2JfQpS-_HPH5pTeUUdEe-37" value="c" style="edgeLabel;html=1;align=center;verticalAlign=middle;resizable=0;points=[];strokeColor=#6c8ebf;fontFamily=Helvetica;fontSize=18;fontColor=default;labelBackgroundColor=default;fillColor=#dae8fc;gradientColor=none;" vertex="1" connectable="0" parent="2JfQpS-_HPH5pTeUUdEe-31">
          <mxGeometry x="-0.0295" y="-2" relative="1" as="geometry">
            <mxPoint as="offset" />
          </mxGeometry>
        </mxCell>
        <mxCell id="2JfQpS-_HPH5pTeUUdEe-4" value="" style="ellipse;whiteSpace=wrap;html=1;aspect=fixed;fillColor=#dae8fc;strokeColor=#6c8ebf;" vertex="1" parent="1">
          <mxGeometry x="260" y="200" width="50" height="50" as="geometry" />
        </mxCell>
        <mxCell id="2JfQpS-_HPH5pTeUUdEe-8" value="" style="ellipse;whiteSpace=wrap;html=1;aspect=fixed;fillColor=#dae8fc;strokeColor=#6c8ebf;" vertex="1" parent="1">
          <mxGeometry x="370" y="200" width="50" height="50" as="geometry" />
        </mxCell>
        <mxCell id="2JfQpS-_HPH5pTeUUdEe-54" style="edgeStyle=none;shape=connector;rounded=1;orthogonalLoop=1;jettySize=auto;html=1;strokeColor=default;align=center;verticalAlign=middle;fontFamily=Helvetica;fontSize=18;fontColor=default;labelBackgroundColor=default;resizable=0;endArrow=open;endFill=0;" edge="1" parent="1" source="2JfQpS-_HPH5pTeUUdEe-11" target="2JfQpS-_HPH5pTeUUdEe-48">
          <mxGeometry relative="1" as="geometry" />
        </mxCell>
        <mxCell id="2JfQpS-_HPH5pTeUUdEe-55" value="e" style="edgeLabel;html=1;align=center;verticalAlign=middle;resizable=0;points=[];strokeColor=#6c8ebf;fontFamily=Helvetica;fontSize=18;fontColor=default;labelBackgroundColor=default;fillColor=#dae8fc;gradientColor=none;" vertex="1" connectable="0" parent="2JfQpS-_HPH5pTeUUdEe-54">
          <mxGeometry x="-0.0882" y="-2" relative="1" as="geometry">
            <mxPoint as="offset" />
          </mxGeometry>
        </mxCell>
        <mxCell id="2JfQpS-_HPH5pTeUUdEe-11" value="" style="ellipse;whiteSpace=wrap;html=1;aspect=fixed;fillColor=#dae8fc;strokeColor=#6c8ebf;" vertex="1" parent="1">
          <mxGeometry x="470" y="200" width="50" height="50" as="geometry" />
        </mxCell>
        <mxCell id="2JfQpS-_HPH5pTeUUdEe-25" value="" style="edgeStyle=none;shape=connector;rounded=1;orthogonalLoop=1;jettySize=auto;html=1;strokeColor=default;align=center;verticalAlign=middle;fontFamily=Helvetica;fontSize=18;fontColor=default;labelBackgroundColor=default;resizable=0;endArrow=open;endFill=0;" edge="1" parent="1" source="2JfQpS-_HPH5pTeUUdEe-21" target="2JfQpS-_HPH5pTeUUdEe-24">
          <mxGeometry relative="1" as="geometry" />
        </mxCell>
        <mxCell id="2JfQpS-_HPH5pTeUUdEe-26" value="c" style="edgeLabel;html=1;align=center;verticalAlign=middle;resizable=0;points=[];strokeColor=#6c8ebf;fontFamily=Helvetica;fontSize=18;fontColor=default;labelBackgroundColor=default;fillColor=#dae8fc;gradientColor=none;" vertex="1" connectable="0" parent="2JfQpS-_HPH5pTeUUdEe-25">
          <mxGeometry x="-0.1795" y="2" relative="1" as="geometry">
            <mxPoint as="offset" />
          </mxGeometry>
        </mxCell>
        <mxCell id="2JfQpS-_HPH5pTeUUdEe-21" value="" style="ellipse;whiteSpace=wrap;html=1;aspect=fixed;fillColor=#dae8fc;strokeColor=#6c8ebf;" vertex="1" parent="1">
          <mxGeometry x="140" y="320" width="50" height="50" as="geometry" />
        </mxCell>
        <mxCell id="2JfQpS-_HPH5pTeUUdEe-28" value="" style="edgeStyle=none;shape=connector;rounded=1;orthogonalLoop=1;jettySize=auto;html=1;strokeColor=default;align=center;verticalAlign=middle;fontFamily=Helvetica;fontSize=18;fontColor=default;labelBackgroundColor=default;resizable=0;endArrow=open;endFill=0;" edge="1" parent="1" source="2JfQpS-_HPH5pTeUUdEe-24" target="2JfQpS-_HPH5pTeUUdEe-27">
          <mxGeometry relative="1" as="geometry" />
        </mxCell>
        <mxCell id="2JfQpS-_HPH5pTeUUdEe-29" value="d" style="edgeLabel;html=1;align=center;verticalAlign=middle;resizable=0;points=[];strokeColor=#6c8ebf;fontFamily=Helvetica;fontSize=18;fontColor=default;labelBackgroundColor=default;fillColor=#dae8fc;gradientColor=none;" vertex="1" connectable="0" parent="2JfQpS-_HPH5pTeUUdEe-28">
          <mxGeometry x="-0.1795" y="-3" relative="1" as="geometry">
            <mxPoint as="offset" />
          </mxGeometry>
        </mxCell>
        <mxCell id="2JfQpS-_HPH5pTeUUdEe-24" value="" style="ellipse;whiteSpace=wrap;html=1;aspect=fixed;fillColor=#dae8fc;strokeColor=#6c8ebf;" vertex="1" parent="1">
          <mxGeometry x="140" y="430" width="50" height="50" as="geometry" />
        </mxCell>
        <mxCell id="2JfQpS-_HPH5pTeUUdEe-35" value="" style="edgeStyle=none;shape=connector;rounded=1;orthogonalLoop=1;jettySize=auto;html=1;strokeColor=default;align=center;verticalAlign=middle;fontFamily=Helvetica;fontSize=18;fontColor=default;labelBackgroundColor=default;resizable=0;endArrow=open;endFill=0;" edge="1" parent="1" source="2JfQpS-_HPH5pTeUUdEe-27" target="2JfQpS-_HPH5pTeUUdEe-34">
          <mxGeometry relative="1" as="geometry" />
        </mxCell>
        <mxCell id="2JfQpS-_HPH5pTeUUdEe-36" value="e" style="edgeLabel;html=1;align=center;verticalAlign=middle;resizable=0;points=[];strokeColor=#6c8ebf;fontFamily=Helvetica;fontSize=18;fontColor=default;labelBackgroundColor=default;fillColor=#dae8fc;gradientColor=none;" vertex="1" connectable="0" parent="2JfQpS-_HPH5pTeUUdEe-35">
          <mxGeometry x="-0.084" y="-2" relative="1" as="geometry">
            <mxPoint as="offset" />
          </mxGeometry>
        </mxCell>
        <mxCell id="2JfQpS-_HPH5pTeUUdEe-27" value="" style="ellipse;whiteSpace=wrap;html=1;aspect=fixed;fillColor=#dae8fc;strokeColor=#6c8ebf;" vertex="1" parent="1">
          <mxGeometry x="140" y="560" width="50" height="50" as="geometry" />
        </mxCell>
        <mxCell id="2JfQpS-_HPH5pTeUUdEe-33" value="" style="edgeStyle=none;shape=connector;rounded=1;orthogonalLoop=1;jettySize=auto;html=1;strokeColor=default;align=center;verticalAlign=middle;fontFamily=Helvetica;fontSize=18;fontColor=default;labelBackgroundColor=default;resizable=0;endArrow=open;endFill=0;" edge="1" parent="1" source="2JfQpS-_HPH5pTeUUdEe-30" target="2JfQpS-_HPH5pTeUUdEe-32">
          <mxGeometry relative="1" as="geometry" />
        </mxCell>
        <mxCell id="2JfQpS-_HPH5pTeUUdEe-38" value="d" style="edgeLabel;html=1;align=center;verticalAlign=middle;resizable=0;points=[];strokeColor=#6c8ebf;fontFamily=Helvetica;fontSize=18;fontColor=default;labelBackgroundColor=default;fillColor=#dae8fc;gradientColor=none;" vertex="1" connectable="0" parent="2JfQpS-_HPH5pTeUUdEe-33">
          <mxGeometry x="0.0205" relative="1" as="geometry">
            <mxPoint as="offset" />
          </mxGeometry>
        </mxCell>
        <mxCell id="2JfQpS-_HPH5pTeUUdEe-30" value="" style="ellipse;whiteSpace=wrap;html=1;aspect=fixed;fillColor=#dae8fc;strokeColor=#6c8ebf;" vertex="1" parent="1">
          <mxGeometry x="260" y="320" width="50" height="50" as="geometry" />
        </mxCell>
        <mxCell id="2JfQpS-_HPH5pTeUUdEe-40" value="" style="edgeStyle=none;shape=connector;rounded=1;orthogonalLoop=1;jettySize=auto;html=1;strokeColor=default;align=center;verticalAlign=middle;fontFamily=Helvetica;fontSize=18;fontColor=default;labelBackgroundColor=default;resizable=0;endArrow=open;endFill=0;" edge="1" parent="1" source="2JfQpS-_HPH5pTeUUdEe-32" target="2JfQpS-_HPH5pTeUUdEe-39">
          <mxGeometry relative="1" as="geometry" />
        </mxCell>
        <mxCell id="2JfQpS-_HPH5pTeUUdEe-41" value="e" style="edgeLabel;html=1;align=center;verticalAlign=middle;resizable=0;points=[];strokeColor=#6c8ebf;fontFamily=Helvetica;fontSize=18;fontColor=default;labelBackgroundColor=default;fillColor=#dae8fc;gradientColor=none;" vertex="1" connectable="0" parent="2JfQpS-_HPH5pTeUUdEe-40">
          <mxGeometry x="-0.1045" y="-1" relative="1" as="geometry">
            <mxPoint as="offset" />
          </mxGeometry>
        </mxCell>
        <mxCell id="2JfQpS-_HPH5pTeUUdEe-32" value="" style="ellipse;whiteSpace=wrap;html=1;aspect=fixed;fillColor=#dae8fc;strokeColor=#6c8ebf;" vertex="1" parent="1">
          <mxGeometry x="260" y="430" width="50" height="50" as="geometry" />
        </mxCell>
        <mxCell id="2JfQpS-_HPH5pTeUUdEe-34" value="" style="ellipse;whiteSpace=wrap;html=1;aspect=fixed;fillColor=#dae8fc;strokeColor=#6c8ebf;" vertex="1" parent="1">
          <mxGeometry x="140" y="680" width="50" height="50" as="geometry" />
        </mxCell>
        <mxCell id="2JfQpS-_HPH5pTeUUdEe-39" value="" style="ellipse;whiteSpace=wrap;html=1;aspect=fixed;fillColor=#dae8fc;strokeColor=#6c8ebf;" vertex="1" parent="1">
          <mxGeometry x="260" y="560" width="50" height="50" as="geometry" />
        </mxCell>
        <mxCell id="2JfQpS-_HPH5pTeUUdEe-42" value="" style="edgeStyle=none;shape=connector;rounded=1;orthogonalLoop=1;jettySize=auto;html=1;strokeColor=default;align=center;verticalAlign=middle;fontFamily=Helvetica;fontSize=18;fontColor=default;labelBackgroundColor=default;resizable=0;endArrow=open;endFill=0;exitX=0.5;exitY=1;exitDx=0;exitDy=0;" edge="1" parent="1" target="2JfQpS-_HPH5pTeUUdEe-46" source="2JfQpS-_HPH5pTeUUdEe-8">
          <mxGeometry relative="1" as="geometry">
            <mxPoint x="414" y="355" as="sourcePoint" />
          </mxGeometry>
        </mxCell>
        <mxCell id="2JfQpS-_HPH5pTeUUdEe-43" value="d" style="edgeLabel;html=1;align=center;verticalAlign=middle;resizable=0;points=[];strokeColor=#6c8ebf;fontFamily=Helvetica;fontSize=18;fontColor=default;labelBackgroundColor=default;fillColor=#dae8fc;gradientColor=none;" vertex="1" connectable="0" parent="2JfQpS-_HPH5pTeUUdEe-42">
          <mxGeometry x="0.0205" relative="1" as="geometry">
            <mxPoint as="offset" />
          </mxGeometry>
        </mxCell>
        <mxCell id="2JfQpS-_HPH5pTeUUdEe-44" value="" style="edgeStyle=none;shape=connector;rounded=1;orthogonalLoop=1;jettySize=auto;html=1;strokeColor=default;align=center;verticalAlign=middle;fontFamily=Helvetica;fontSize=18;fontColor=default;labelBackgroundColor=default;resizable=0;endArrow=open;endFill=0;" edge="1" parent="1" source="2JfQpS-_HPH5pTeUUdEe-46" target="2JfQpS-_HPH5pTeUUdEe-47">
          <mxGeometry relative="1" as="geometry" />
        </mxCell>
        <mxCell id="2JfQpS-_HPH5pTeUUdEe-45" value="e" style="edgeLabel;html=1;align=center;verticalAlign=middle;resizable=0;points=[];strokeColor=#6c8ebf;fontFamily=Helvetica;fontSize=18;fontColor=default;labelBackgroundColor=default;fillColor=#dae8fc;gradientColor=none;" vertex="1" connectable="0" parent="2JfQpS-_HPH5pTeUUdEe-44">
          <mxGeometry x="-0.1045" y="-1" relative="1" as="geometry">
            <mxPoint as="offset" />
          </mxGeometry>
        </mxCell>
        <mxCell id="2JfQpS-_HPH5pTeUUdEe-46" value="" style="ellipse;whiteSpace=wrap;html=1;aspect=fixed;fillColor=#dae8fc;strokeColor=#6c8ebf;" vertex="1" parent="1">
          <mxGeometry x="370" y="320" width="50" height="50" as="geometry" />
        </mxCell>
        <mxCell id="2JfQpS-_HPH5pTeUUdEe-47" value="" style="ellipse;whiteSpace=wrap;html=1;aspect=fixed;fillColor=#dae8fc;strokeColor=#6c8ebf;" vertex="1" parent="1">
          <mxGeometry x="370" y="430" width="50" height="50" as="geometry" />
        </mxCell>
        <mxCell id="2JfQpS-_HPH5pTeUUdEe-48" value="" style="ellipse;whiteSpace=wrap;html=1;aspect=fixed;fillColor=#dae8fc;strokeColor=#6c8ebf;" vertex="1" parent="1">
          <mxGeometry x="470" y="320" width="50" height="50" as="geometry" />
        </mxCell>
      </root>
    </mxGraphModel>
  </diagram>
</mxfile>
